# xmcd
#
# Track frame offsets: 
#        182
#        18847
#        43855
#        61520
#        78807
#        97210
#        116122
#        138147
#        162050
#
# Disc length: 2437 seconds
#
# Revision: 12
# Processed by: cddbd v1.5.2PL0 Copyright (c) Steve Scherf et al.
# Submitted via: ExactAudioCopy v1.3
#
DISCID=66098309
DTITLE=Dr. John - In a Sentimental Mood
DYEAR=1989
DGENRE=Jazz
TTITLE0=Makin' Whoopee!
TTITLE1=Candy
TTITLE2=Accentuate the Positive
TTITLE3=My Buddy
TTITLE4=In a Sentimental Mood
TTITLE5=Black Night
TTITLE6=Don't Let the Sun Catch You Cryin'
TTITLE7=Love For Sale
TTITLE8=More Than You Know
EXTD=LABEL =Warner Bros. Records Inc.\nID =925889-2\nUPC =none\nCOP
EXTD=YRIGHT =1989
EXTT0=Featuring Rickie Lee Jones\\r\nG. Kahn - W. Donaldson
EXTT1=M. David - J. Whitney - A. Kramer
EXTT2=J. Mercer
EXTT3=G. Kahn - W. Donaldson
EXTT4=D. Ellington - I. Mills
EXTT5=J. Robinson
EXTT6=J. Greene
EXTT7=C. Porter
EXTT8=W. Rose - E. eliscu - V. Youmans
PLAYORDER=
